<?xml version="1.0" encoding="UTF-8" standalone="no"?>
<!DOCTYPE svg PUBLIC "-//W3C//DTD SVG 1.1//EN" "http://www.w3.org/Graphics/SVG/1.1/DTD/svg11.dtd">
<svg width="100%" height="100%" viewBox="0 0 4572 2925" version="1.1" xmlns="http://www.w3.org/2000/svg" xmlns:xlink="http://www.w3.org/1999/xlink" xml:space="preserve" xmlns:serif="http://www.serif.com/" style="fill-rule:evenodd;clip-rule:evenodd;stroke-linecap:round;stroke-miterlimit:1.5;">
    <g transform="matrix(1,0,0,1,-59.901403,-200.558048)">
        <g transform="matrix(2.476489,0,0,2.476489,-2329.729386,-1393.424107)">
            <g transform="matrix(154.814857,0,0,154.814857,2487.277409,1025.615469)">
            </g>
            <text x="1982.757px" y="1025.615px" style="font-family:'Inter-Medium', 'Inter';font-weight:500;font-size:154.815px;fill:white;">A<tspan x="2092.664px 2132.751px 2231.169px 2323.649px 2389.63px 2448.739px " y="1025.615px 1025.615px 1025.615px 1025.615px 1025.615px 1025.615px ">lberti</tspan></text>
        </g>
        <g transform="matrix(2.476489,0,0,2.476489,-1613.022273,-1549.7155)">
            <g transform="matrix(154.814857,0,0,154.814857,2527.461406,1260.041862)">
            </g>
            <text x="1689.724px" y="1260.042px" style="font-family:'Inter-Light', 'Inter';font-weight:300;font-size:154.815px;fill:white;">T<tspan x="1775.323px " y="1260.042px ">e</tspan>chnology</text>
        </g>
        <g transform="matrix(2.476489,0,0,2.476489,-700.592428,-1179.758515)">
            <g transform="matrix(1,0,0,1,7.670275,-7)">
                <g transform="matrix(1,0,0,1.040466,-152.532572,223.575082)">
                    <path d="M1132.253,680.254L1131.412,475.229L1037.04,476.567L1037.04,327.539L1408.805,327.539L1408.805,477.905L1316.037,475.229L1315.42,588.068L1132.253,680.254ZM1315.057,654.363L1312.14,1187.94L1134.7,1277.244L1132.523,746.23L1315.057,654.363ZM1311.887,1234.347L1310.685,1454.147L1135.426,1454.147L1134.89,1323.428L1311.887,1234.347Z" style="fill:white;"/>
                </g>
                <g transform="matrix(1,0,0,1.040466,-152.532572,219.413218)">
                    <path d="M498.549,1002.354L565.497,335.249L814.339,335.249L860.772,820.051L498.549,1002.354ZM866.813,883.124L881.377,1035.189L474.714,1239.858L491.561,1071.983L866.813,883.124ZM885.605,1079.34L922.706,1466.706L744.771,1466.706L727.378,1222.976L644.431,1225.652L633.728,1466.706L451.948,1466.706L469.822,1288.598L885.605,1079.34Z" style="fill:white;"/>
                </g>
            </g>
            <g transform="matrix(3.225079,0,0,1.06136,-1690.756288,148.141497)">
                <path d="M657.81,1069.532L718.013,1069.532L687.327,568.763L657.81,1069.532Z" style="fill:rgb(30,128,188);stroke:rgb(39,159,232);stroke-width:1px;"/>
            </g>
        </g>
        <g transform="matrix(2.476489,0,0,2.476489,-2329.729386,-1393.424107)">
            <g transform="matrix(154.814857,0,0,154.814857,2487.277409,1025.615469)">
            </g>
            <text x="1982.757px" y="1025.615px" style="font-family:'Inter-Medium', 'Inter';font-weight:500;font-size:154.815px;fill:white;">A<tspan x="2092.664px 2132.751px 2231.169px 2323.649px 2389.63px 2448.739px " y="1025.615px 1025.615px 1025.615px 1025.615px 1025.615px 1025.615px ">lberti</tspan></text>
        </g>
        <g transform="matrix(2.476489,0,0,2.476489,-1613.022273,-1549.7155)">
            <g transform="matrix(154.814857,0,0,154.814857,2527.461406,1260.041862)">
            </g>
            <text x="1689.724px" y="1260.042px" style="font-family:'Inter-Light', 'Inter';font-weight:300;font-size:154.815px;fill:white;">T<tspan x="1775.323px " y="1260.042px ">e</tspan>chnology</text>
        </g>
        <g transform="matrix(2.476489,0,0,2.476489,-700.592428,-1179.758515)">
            <g transform="matrix(1,0,0,1,7.670275,-7)">
                <g transform="matrix(1,0,0,1.040466,-152.532572,223.575082)">
                    <path d="M1132.253,680.254L1131.412,475.229L1037.04,476.567L1037.04,327.539L1408.805,327.539L1408.805,477.905L1316.037,475.229L1315.42,588.068L1132.253,680.254ZM1315.057,654.363L1312.14,1187.94L1134.7,1277.244L1132.523,746.23L1315.057,654.363ZM1311.887,1234.347L1310.685,1454.147L1135.426,1454.147L1134.89,1323.428L1311.887,1234.347Z" style="fill:white;"/>
                </g>
                <g transform="matrix(1,0,0,1.040466,-152.532572,219.413218)">
                    <path d="M498.549,1002.354L565.497,335.249L814.339,335.249L860.772,820.051L498.549,1002.354ZM866.813,883.124L881.377,1035.189L474.714,1239.858L491.561,1071.983L866.813,883.124ZM885.605,1079.34L922.706,1466.706L744.771,1466.706L727.378,1222.976L644.431,1225.652L633.728,1466.706L451.948,1466.706L469.822,1288.598L885.605,1079.34Z" style="fill:white;"/>
                </g>
            </g>
            <g transform="matrix(3.225079,0,0,1.06136,-1690.756288,148.141497)">
                <path d="M657.81,1069.532L718.013,1069.532L687.327,568.763L657.81,1069.532Z" style="fill:rgb(30,128,188);stroke:rgb(39,159,232);stroke-width:1px;"/>
            </g>
        </g>
    </g>
</svg>
